<svg xmlns="http://www.w3.org/2000/svg" width="195.586" height="30.468" viewBox="2.054 3.432 195.586 30.468"><path fill="#ec1c24" d="M2.054 33.896L16.007 9l2.496 4.446L11.6 25.72l13.828.066 4.552 8.11-27.926.001zm34.16.004L19.128 3.432l-2.62 4.674 2.98 5.333-6.438 11.428 12.88.06 5.025 8.972 5.26.002z"/><path d="M53.317 27H49.63l-.964-2.8h-5.124l-.964 2.8h-3.6l5.114-13.845h4.1L53.306 27h.01zm-5.5-5.335l-1.704-4.96-1.704 4.96h3.408zm12.745 5.617c-.9 0-1.743-.1-2.497-.326s-1.4-.553-1.967-1.004a4.58 4.58 0 0 1-1.283-1.701c-.303-.678-.456-1.494-.456-2.418 0-.973.163-1.813.488-2.52s.78-1.293 1.362-1.758a5.52 5.52 0 0 1 1.953-.967 8.53 8.53 0 0 1 2.297-.307c.713 0 1.37.077 1.97.23a9.17 9.17 0 0 1 1.683.604v2.854h-.473l-.47-.398c-.2-.168-.435-.314-.673-.44-.253-.137-.532-.25-.835-.34s-.656-.133-1.06-.133c-.892 0-1.577.283-2.057.85s-.72 1.34-.72 2.3c0 1.006.246 1.77.738 2.3s1.2.778 2.094.778a4.09 4.09 0 0 0 1.138-.145c.338-.096.617-.2.84-.34a3.77 3.77 0 0 0 .557-.391l.446-.4h.473v2.854a9.3 9.3 0 0 1-1.65.592 7.69 7.69 0 0 1-1.9.223l.002.012zm14.84-3.6c0 1.08-.483 1.948-1.45 2.608s-2.3 1-3.97 1c-.93 0-1.773-.088-2.53-.26s-1.364-.367-1.823-.578V23.7h.307l.58.385a4.85 4.85 0 0 0 .935.451 7.82 7.82 0 0 0 1.18.365 6.28 6.28 0 0 0 1.413.154c.657 0 1.144-.074 1.46-.22s.474-.36.474-.646c0-.254-.093-.438-.28-.553s-.54-.225-1.06-.33l-1-.182-1.158-.236c-.95-.248-1.652-.635-2.1-1.158s-.688-1.178-.688-1.957c0-1.004.476-1.84 1.428-2.506s2.25-1 3.9-1c.755-.003 1.508.076 2.246.236.716.158 1.275.328 1.68.508v2.642h-.3a6.77 6.77 0 0 0-1.697-.831c-.622-.213-1.273-.32-1.93-.322-.54 0-.994.076-1.362.225s-.553.36-.553.633c0 .248.083.438.25.566s.56.26 1.18.4l1.102.198 1.186.246c.88.23 1.53.6 1.953 1.084s.632 1.1.632 1.85l-.005-.018zm5.672-8.62H77.53v-2.54h3.543v2.54zm-.093 11.93h-3.357V16.56h3.357v10.432zM94.65 16.55l-4.027 10.443H86.83L82.833 16.56h3.535l2.423 7.188 2.393-7.188h3.468l-.001-.01zm19.64 6.1c0 1.36-.578 2.473-1.732 3.324s-2.73 1.277-4.7 1.277c-1.146 0-2.146-.1-3-.303-.817-.2-1.62-.447-2.396-.77v-3.32h.4a8.18 8.18 0 0 0 2.478 1.355c.916.316 1.793.476 2.638.476a7.64 7.64 0 0 0 .854-.058c.354-.036.643-.1.864-.186.25-.096.478-.238.675-.418.176-.168.264-.416.264-.744 0-.305-.13-.566-.385-.785s-.635-.4-1.13-.508l-1.65-.35c-.55-.104-1.098-.24-1.63-.414-1.166-.38-2.004-.9-2.517-1.54s-.767-1.45-.767-2.412c0-1.3.578-2.342 1.734-3.157s2.643-1.223 4.46-1.223a13.85 13.85 0 0 1 2.699.265c.887.177 1.66.398 2.313.665v3.2h-.38c-.56-.445-1.242-.82-2.05-1.12a7.06 7.06 0 0 0-2.479-.451 6.41 6.41 0 0 0-.888.061 3.47 3.47 0 0 0-.853.228 1.63 1.63 0 0 0-.623.424c-.174.2-.26.404-.26.646 0 .366.142.646.418.843s.808.373 1.58.534l1.465.308a15.36 15.36 0 0 1 1.513.408c1.06.348 1.842.82 2.348 1.418s.758 1.377.758 2.33l-.015-.005zm5.7-7.578h-3.542v-2.54H120v2.54H120zM119.896 27h-3.356V16.56h3.356V27zm12.24-3.3c0 1.08-.482 1.95-1.45 2.607s-2.3 1-3.97 1c-.93 0-1.772-.086-2.53-.26s-1.363-.365-1.822-.576V23.7h.307l.58.385c.222.142.53.3.937.45.383.153.776.275 1.183.365.438.104.908.154 1.414.154.654 0 1.143-.074 1.46-.22s.475-.36.475-.646c0-.254-.094-.438-.278-.553s-.54-.225-1.06-.33l-1-.182-1.158-.236c-.948-.248-1.65-.635-2.102-1.158s-.688-1.178-.688-1.957c0-1.004.477-1.84 1.43-2.506s2.252-1 3.9-1a10.4 10.4 0 0 1 2.246.236c.717.158 1.274.328 1.68.508v2.642h-.287a6.77 6.77 0 0 0-1.697-.831c-.62-.213-1.273-.32-1.93-.322-.54 0-.993.076-1.362.225s-.554.36-.554.633c0 .248.084.438.25.566s.563.26 1.182.4l1.102.2 1.188.246c.88.23 1.53.6 1.953 1.084s.628 1.1.628 1.848h-.015zm8.9 3.2a9.71 9.71 0 0 1-1.146.219c-.405.053-.896.078-1.48.078-1.303 0-2.27-.264-2.906-.8s-.953-1.432-.953-2.707v-4.87h-1.377v-2.27h1.377v-2.985h3.357v2.985h3.125v2.27h-3.125v3.706l.01.96a2.02 2.02 0 0 0 .147.735 1 1 0 0 0 .46.519c.22.116.54.198.96.198.173 0 .4-.037.683-.1s.48-.143.6-.205h.276v2.302l-.01-.035zm12.282-4.5h-7.66c.05.816.36 1.443.934 1.877s1.418.65 2.535.65a5.7 5.7 0 0 0 2.056-.383c.66-.254 1.188-.525 1.57-.816h.37v2.688c-.756.305-1.47.523-2.14.66a11.04 11.04 0 0 1-2.224.205c-2.094 0-3.7-.473-4.815-1.414s-1.674-2.283-1.674-4.025c0-1.725.528-3.1 1.585-4.096s2.507-1.5 4.348-1.5c1.698 0 2.978.43 3.83 1.287s1.283 2.094 1.283 3.707v1.17h.003zm-3.33-1.962c-.02-.698-.2-1.23-.52-1.582s-.84-.528-1.533-.528c-.645 0-1.176.166-1.6.502s-.648.87-.7 1.6h4.344l.01.008zm15.893-.838V27h-3.356v-5.217l-.037-1.297c-.024-.357-.093-.646-.204-.87-.104-.22-.285-.393-.507-.488-.228-.1-.544-.153-.952-.153-.33-.001-.656.067-.96.198a7.31 7.31 0 0 0-.837.425V27h-3.356V16.56h3.356v1.152c.575-.453 1.128-.805 1.653-1.06s1.107-.38 1.746-.38c.688 0 1.294.152 1.82.46s.938.76 1.232 1.353c.67-.563 1.316-1.006 1.95-1.33s1.25-.482 1.856-.482c1.125 0 1.98.338 2.566 1.014s.877 1.65.877 2.92v6.797h-3.355v-5.217l-.03-1.303c-.022-.354-.102-.643-.2-.863a.96.96 0 0 0-.502-.488c-.23-.104-.554-.153-.97-.153-.277.001-.555.05-.816.146-.268.096-.602.254-.977.48V19.6h.003zm16.274 6.296l-.67.492a4.36 4.36 0 0 1-.753.455 4.71 4.71 0 0 1-1.022.33c-.352.07-.74.107-1.162.107-1 0-1.82-.3-2.5-.92s-1.005-1.397-1.005-2.354c0-.762.17-1.385.513-1.87s.824-.864 1.45-1.145c.62-.28 1.398-.48 2.307-.596l2.854-.262v-.053c0-.578-.234-.976-.707-1.195s-1.166-.33-2.084-.33c-.55 0-1.14.1-1.766.293l-1.35.45h-.308v-2.52c.354-.093.93-.203 1.726-.33a15.2 15.2 0 0 1 2.396-.2c1.902 0 3.277.293 4.123.877s1.27 1.506 1.27 2.758V27h-3.32v-1.104h-.001zm0-1.625V22.1l-1.47.15c-.526.064-.927.142-1.2.23-.335.104-.6.26-.768.46s-.266.466-.266.793c0 .218.02.394.057.526s.13.27.28.4a1.32 1.32 0 0 0 .512.273c.2.06.5.088.93.088a2.74 2.74 0 0 0 1.019-.203 3.2 3.2 0 0 0 .906-.537v-.008zm15.472-.58c0 1.08-.482 1.95-1.45 2.607s-2.3 1-3.97 1c-.93 0-1.772-.086-2.53-.26s-1.364-.365-1.822-.576V23.7h.307l.58.385c.22.142.53.3.937.45a7.65 7.65 0 0 0 1.181.365c.44.104.9.154 1.414.154.656 0 1.145-.074 1.46-.22s.476-.36.476-.646c0-.254-.094-.438-.278-.553s-.54-.225-1.06-.33l-1.012-.182-1.156-.236c-.95-.248-1.65-.635-2.102-1.158s-.688-1.178-.688-1.957c0-1.004.477-1.84 1.428-2.506s2.252-1 3.9-1a10.38 10.38 0 0 1 2.245.236c.718.158 1.275.328 1.68.508v2.642h-.287a6.77 6.77 0 0 0-1.697-.831c-.62-.213-1.273-.32-1.93-.322-.54 0-.994.076-1.362.225s-.554.36-.554.633c0 .248.084.438.25.566s.562.26 1.182.4l1.102.2 1.188.246c.88.23 1.53.6 1.95 1.084s.63 1.1.63 1.848h-.015z" fill="#231f20"/></svg>