<svg xmlns="http://www.w3.org/2000/svg" width="146.922" height="61.92" viewBox="1.346 1.18 146.922 61.92"><path fill="#fff" d="M51.65 42.826L70.727 8.792l3.412 6.08-9.44 16.775 18.904.093 6.223 11.086H51.65zm46.7.007L74.994 1.18l-3.58 6.4 4.074 7.292-8.8 15.622 17.6.082 6.87 12.263 7.186.006.006-.012zM14.624 62.82H11.2l-.893-2.592H5.57l-.894 2.592h-3.33L6.08 50h3.807l4.737 12.82zM9.52 57.878l-1.578-4.594-1.578 4.594H9.52zm11.813 5.202c-.844 0-1.615-.1-2.313-.303-.664-.184-1.283-.5-1.82-.93-.5-.42-.907-.947-1.188-1.586s-.422-1.383-.422-2.238c0-.9.15-1.682.452-2.334a4.42 4.42 0 0 1 1.262-1.627c.522-.408 1.125-.707 1.808-.896.693-.2 1.41-.287 2.127-.283a7.19 7.19 0 0 1 1.826.216c.537.136 1.06.323 1.56.56v2.645h-.438l-.435-.36c-.17-.14-.377-.27-.624-.402s-.505-.236-.773-.313c-.28-.084-.608-.125-.98-.125-.826 0-1.46.263-1.905.786s-.667 1.238-.667 2.142c0 .93.228 1.638.684 2.12s1.103.724 1.94.724c.4 0 .74-.043 1.053-.133s.572-.193.778-.314c.195-.113.367-.234.516-.36l.413-.37h.438v2.645c-.49.23-1.004.414-1.53.547-.532.127-1.118.19-1.76.19zm13.743-3.325c0 1-.448 1.806-1.343 2.416s-2.12.916-3.677.916c-.86 0-1.642-.08-2.342-.24s-1.263-.34-1.688-.533v-2.55h.284l.54.354c.204.13.492.27.865.418.322.133.686.246 1.094.34a5.71 5.71 0 0 0 1.309.144c.608 0 1.06-.065 1.352-.2s.44-.337.44-.602c0-.235-.086-.405-.258-.514s-.5-.207-.98-.307l-.935-.168-1.072-.22c-.878-.23-1.53-.586-1.955-1.07s-.637-1.102-.637-1.813c0-.93.44-1.703 1.322-2.32s2.085-.927 3.612-.927a9.52 9.52 0 0 1 2.08.22c.663.148 1.18.304 1.554.472v2.444h-.268a6.43 6.43 0 0 0-1.57-.771 5.63 5.63 0 0 0-1.787-.297c-.5 0-.92.07-1.262.207s-.512.334-.512.586c0 .23.078.404.232.523s.52.24 1.094.36l1.02.186 1.098.23c.815.213 1.417.547 1.808 1.002s.585 1.027.585 1.7l-.003.01zm5.254-7.984h-3.28v-2.35h3.28v2.35zm-.086 11.05h-3.1v-9.67h3.1v9.67zm12.658-9.672l-3.73 9.67H45.66l-3.703-9.67h3.273l2.245 6.656L49.7 53.15h3.202zM71.1 58.8c0 1.263-.536 2.3-1.606 3.08s-2.524 1.185-4.36 1.185c-1.063 0-1.988-.095-2.777-.28a15.53 15.53 0 0 1-2.218-.699V59h.362a7.67 7.67 0 0 0 2.295 1.258c.847.29 1.66.44 2.44.44.2 0 .465-.02.792-.053a3.11 3.11 0 0 0 .8-.172c.252-.104.46-.23.625-.39s.245-.385.245-.688c0-.28-.12-.523-.357-.73s-.587-.36-1.046-.47l-1.53-.322a12.41 12.41 0 0 1-1.51-.383c-1.08-.352-1.856-.826-2.33-1.428s-.7-1.346-.7-2.232c0-1.195.535-2.17 1.606-2.924s2.447-1.135 4.13-1.135a12.8 12.8 0 0 1 2.501.246c.824.164 1.538.37 2.14.615v2.953h-.353c-.517-.412-1.15-.76-1.9-1.037a6.59 6.59 0 0 0-2.295-.418 6.64 6.64 0 0 0-.822.057c-.272.037-.536.107-.788.2a1.48 1.48 0 0 0-.577.393c-.155.16-.242.375-.24.598a.89.89 0 0 0 .387.779c.258.18.747.346 1.464.496l1.356.283 1.4.38c.982.322 1.707.76 2.174 1.313s.703 1.275.703 2.158l-.01.013zm5.276-7.017h-3.28V49.43h3.28v2.352zm-.085 11.05h-3.107v-9.67h3.107v9.67zm11.324-3.066c0 1-.447 1.806-1.344 2.416s-2.12.916-3.676.916c-.86 0-1.645-.08-2.346-.24s-1.263-.338-1.688-.532v-2.55h.285l.537.354c.203.13.492.27.865.418.32.134.688.246 1.094.34a5.77 5.77 0 0 0 1.309.144c.602 0 1.06-.066 1.354-.2s.44-.336.44-.6c0-.235-.088-.405-.26-.515s-.498-.207-.98-.305l-.937-.168-1.07-.22c-.878-.23-1.53-.588-1.955-1.072s-.638-1.1-.638-1.813c0-.93.438-1.702 1.32-2.32s2.087-.926 3.613-.926c.724 0 1.416.07 2.078.22s1.182.303 1.555.47v2.444H86.9a6.41 6.41 0 0 0-1.572-.771c-.588-.196-1.184-.297-1.787-.297-.5 0-.92.07-1.262.207s-.512.332-.512.584c0 .23.074.406.23.525s.52.24 1.094.36l1.02.186 1.098.23c.816.215 1.418.55 1.8 1.004s.585 1.025.585 1.7l.02.012zm8.242 2.98a8.7 8.7 0 0 1-1.061.201c-.455.053-.912.076-1.37.072-1.207 0-2.104-.244-2.7-.732s-.883-1.322-.883-2.506v-4.52H88.58v-2.1h1.275v-2.765h3.1v2.765h2.894v2.104h-2.894v3.434l.008.887c.006.254.052.48.138.683a.97.97 0 0 0 .426.479c.203.12.5.178.9.178.16 0 .37-.034.632-.104s.438-.133.545-.2h.258v2.117l-.004.007zm11.375-4.176h-7.098c.05.758.336 1.338.865 1.74s1.313.604 2.35.604c.65.002 1.295-.12 1.9-.354.612-.236 1.102-.488 1.455-.76h.346v2.488a11.38 11.38 0 0 1-1.979.612c-.62.127-1.307.2-2.06.2-1.94 0-3.428-.437-4.46-1.3S97 59.654 97 58.04c0-1.598.5-2.86 1.472-3.795s2.32-1.4 4.024-1.4c1.572 0 2.756.398 3.55 1.193s1.188 1.938 1.188 3.432v1.09l-.001.01zm-3.082-1.82c-.02-.647-.178-1.137-.482-1.463s-.776-.5-1.422-.5c-.596 0-1.088.152-1.473.465s-.602.808-.646 1.5l4.023-.002zm14.717-.774v6.854h-3.1V58l-.033-1.2c-.023-.33-.086-.6-.2-.807-.1-.2-.267-.36-.473-.45-.2-.096-.502-.143-.88-.143-.307 0-.61.063-.89.186-.267.113-.523.244-.77.394v6.854h-3.102v-9.67h3.102v1.067a8.33 8.33 0 0 1 1.529-.981c.486-.234 1.027-.354 1.617-.354.637 0 1.2.144 1.686.427.498.295.896.73 1.146 1.254.62-.523 1.22-.935 1.808-1.23s1.157-.447 1.72-.447c1.043 0 1.836.313 2.382.938s.813 1.527.813 2.705v6.295h-3.1V58l-.03-1.205c-.02-.328-.082-.594-.187-.8-.098-.205-.254-.357-.465-.45s-.513-.143-.896-.143a2.14 2.14 0 0 0-.758.135 5.96 5.96 0 0 0-.908.443l-.01-.001zm15.07 5.83l-.62.456c-.22.16-.452.303-.698.423-.304.138-.62.24-.947.306a5.32 5.32 0 0 1-1.075.1c-.92 0-1.688-.283-2.308-.852s-.933-1.296-.933-2.18c0-.707.158-1.283.476-1.73s.765-.802 1.344-1.062 1.285-.438 2.137-.55l2.645-.24v-.054c0-.532-.22-.9-.654-1.104s-1.08-.308-1.93-.308c-.512 0-1.057.1-1.637.27l-1.248.418h-.283v-2.334c.326-.086.86-.188 1.596-.306a14.01 14.01 0 0 1 2.222-.179c1.763 0 3.034.27 3.817.814s1.176 1.393 1.176 2.553v6.58h-3.073V61.8l-.006.007zm0-1.505v-2l-1.36.142a8.06 8.06 0 0 0-1.109.201c-.3.1-.547.24-.7.424s-.246.43-.246.733a2.02 2.02 0 0 0 .053.5c.035.138.12.246.258.36s.3.203.474.252c.185.053.47.082.86.082.3 0 .625-.063.94-.188a2.96 2.96 0 0 0 .84-.498l-.012-.01zm14.33-.536c0 1-.45 1.806-1.345 2.416s-2.12.916-3.678.916c-.86 0-1.645-.08-2.344-.24s-1.264-.338-1.688-.532v-2.55h.283l.54.354c.203.13.492.27.864.418.32.134.687.246 1.095.34.43.098.87.146 1.31.144.607 0 1.06-.066 1.354-.2s.44-.336.44-.6c0-.235-.086-.405-.26-.515s-.5-.207-.98-.305l-.936-.168-1.07-.22c-.88-.23-1.53-.588-1.955-1.072s-.637-1.1-.637-1.813c0-.93.44-1.702 1.318-2.32s2.086-.926 3.612-.926c.724 0 1.416.07 2.08.22s1.183.303 1.556.47v2.444h-.27c-.483-.327-1.015-.588-1.57-.77a5.63 5.63 0 0 0-1.785-.297c-.5 0-.922.07-1.263.207s-.515.332-.515.584c0 .23.078.406.232.525s.52.24 1.094.36l1.02.186 1.1.23c.813.215 1.418.55 1.8 1.004s.588 1.025.588 1.7l.01.012z"/></svg>